<mxfile host="app.diagrams.net" agent="Mozilla/5.0 (Windows NT 10.0; Win64; x64) AppleWebKit/537.36 (KHTML, like Gecko) Chrome/138.0.0.0 Safari/537.36" version="28.0.6">
  <diagram name="Page-1" id="hGZgGQS66yqK4x2I5LQ9">
    <mxGraphModel dx="1726" dy="1704" grid="1" gridSize="10" guides="1" tooltips="1" connect="1" arrows="1" fold="1" page="1" pageScale="1" pageWidth="1169" pageHeight="827" math="0" shadow="0">
      <root>
        <mxCell id="0" />
        <mxCell id="1" parent="0" />
        <mxCell id="1VQZmttFoH2Id-X8hUn1-148" style="edgeStyle=orthogonalEdgeStyle;rounded=0;orthogonalLoop=1;jettySize=auto;html=1;exitX=0.143;exitY=-0.022;exitDx=0;exitDy=0;exitPerimeter=0;" edge="1" parent="1" source="1VQZmttFoH2Id-X8hUn1-17">
          <mxGeometry relative="1" as="geometry">
            <mxPoint x="91" y="310" as="targetPoint" />
            <Array as="points">
              <mxPoint x="195" y="559" />
              <mxPoint x="195" y="441" />
              <mxPoint x="91" y="441" />
            </Array>
          </mxGeometry>
        </mxCell>
        <mxCell id="1VQZmttFoH2Id-X8hUn1-16" value="" style="shape=table;startSize=0;container=1;collapsible=0;childLayout=tableLayout;fontSize=16;" vertex="1" parent="1">
          <mxGeometry x="50" y="560" width="1030" height="54" as="geometry" />
        </mxCell>
        <mxCell id="1VQZmttFoH2Id-X8hUn1-17" value="" style="shape=tableRow;horizontal=0;startSize=0;swimlaneHead=0;swimlaneBody=0;strokeColor=inherit;top=0;left=0;bottom=0;right=0;collapsible=0;dropTarget=0;fillColor=none;points=[[0,0.5],[1,0.5]];portConstraint=eastwest;fontSize=16;" vertex="1" parent="1VQZmttFoH2Id-X8hUn1-16">
          <mxGeometry width="1030" height="54" as="geometry" />
        </mxCell>
        <mxCell id="1VQZmttFoH2Id-X8hUn1-18" value="&lt;font&gt;&lt;u&gt;ProductId&lt;/u&gt;&lt;/font&gt;" style="shape=partialRectangle;html=1;whiteSpace=wrap;connectable=0;strokeColor=inherit;overflow=hidden;fillColor=none;top=0;left=0;bottom=0;right=0;pointerEvents=1;fontSize=16;" vertex="1" parent="1VQZmttFoH2Id-X8hUn1-17">
          <mxGeometry width="80" height="54" as="geometry">
            <mxRectangle width="80" height="54" as="alternateBounds" />
          </mxGeometry>
        </mxCell>
        <mxCell id="1VQZmttFoH2Id-X8hUn1-147" value="OrderId" style="shape=partialRectangle;html=1;whiteSpace=wrap;connectable=0;strokeColor=inherit;overflow=hidden;fillColor=none;top=0;left=0;bottom=0;right=0;pointerEvents=1;fontSize=16;" vertex="1" parent="1VQZmttFoH2Id-X8hUn1-17">
          <mxGeometry x="80" width="120" height="54" as="geometry">
            <mxRectangle width="120" height="54" as="alternateBounds" />
          </mxGeometry>
        </mxCell>
        <mxCell id="1VQZmttFoH2Id-X8hUn1-19" value="StockQuantity" style="shape=partialRectangle;html=1;whiteSpace=wrap;connectable=0;strokeColor=inherit;overflow=hidden;fillColor=none;top=0;left=0;bottom=0;right=0;pointerEvents=1;fontSize=16;" vertex="1" parent="1VQZmttFoH2Id-X8hUn1-17">
          <mxGeometry x="200" width="120" height="54" as="geometry">
            <mxRectangle width="120" height="54" as="alternateBounds" />
          </mxGeometry>
        </mxCell>
        <mxCell id="1VQZmttFoH2Id-X8hUn1-20" value="Price" style="shape=partialRectangle;html=1;whiteSpace=wrap;connectable=0;strokeColor=inherit;overflow=hidden;fillColor=none;top=0;left=0;bottom=0;right=0;pointerEvents=1;fontSize=16;" vertex="1" parent="1VQZmttFoH2Id-X8hUn1-17">
          <mxGeometry x="320" width="70" height="54" as="geometry">
            <mxRectangle width="70" height="54" as="alternateBounds" />
          </mxGeometry>
        </mxCell>
        <mxCell id="1VQZmttFoH2Id-X8hUn1-22" value="Description" style="shape=partialRectangle;html=1;whiteSpace=wrap;connectable=0;strokeColor=inherit;overflow=hidden;fillColor=none;top=0;left=0;bottom=0;right=0;pointerEvents=1;fontSize=16;" vertex="1" parent="1VQZmttFoH2Id-X8hUn1-17">
          <mxGeometry x="390" width="90" height="54" as="geometry">
            <mxRectangle width="90" height="54" as="alternateBounds" />
          </mxGeometry>
        </mxCell>
        <mxCell id="1VQZmttFoH2Id-X8hUn1-23" value="DateAdded" style="shape=partialRectangle;html=1;whiteSpace=wrap;connectable=0;strokeColor=inherit;overflow=hidden;fillColor=none;top=0;left=0;bottom=0;right=0;pointerEvents=1;fontSize=16;" vertex="1" parent="1VQZmttFoH2Id-X8hUn1-17">
          <mxGeometry x="480" width="110" height="54" as="geometry">
            <mxRectangle width="110" height="54" as="alternateBounds" />
          </mxGeometry>
        </mxCell>
        <mxCell id="1VQZmttFoH2Id-X8hUn1-25" value="Reviews" style="shape=partialRectangle;html=1;whiteSpace=wrap;connectable=0;strokeColor=inherit;overflow=hidden;fillColor=none;top=0;left=0;bottom=0;right=0;pointerEvents=1;fontSize=16;" vertex="1" parent="1VQZmttFoH2Id-X8hUn1-17">
          <mxGeometry x="590" width="110" height="54" as="geometry">
            <mxRectangle width="110" height="54" as="alternateBounds" />
          </mxGeometry>
        </mxCell>
        <mxCell id="1VQZmttFoH2Id-X8hUn1-26" value="LastUpdated" style="shape=partialRectangle;html=1;whiteSpace=wrap;connectable=0;strokeColor=inherit;overflow=hidden;fillColor=none;top=0;left=0;bottom=0;right=0;pointerEvents=1;fontSize=16;" vertex="1" parent="1VQZmttFoH2Id-X8hUn1-17">
          <mxGeometry x="700" width="110" height="54" as="geometry">
            <mxRectangle width="110" height="54" as="alternateBounds" />
          </mxGeometry>
        </mxCell>
        <mxCell id="1VQZmttFoH2Id-X8hUn1-27" value="IsActive" style="shape=partialRectangle;html=1;whiteSpace=wrap;connectable=0;strokeColor=inherit;overflow=hidden;fillColor=none;top=0;left=0;bottom=0;right=0;pointerEvents=1;fontSize=16;" vertex="1" parent="1VQZmttFoH2Id-X8hUn1-17">
          <mxGeometry x="810" width="110" height="54" as="geometry">
            <mxRectangle width="110" height="54" as="alternateBounds" />
          </mxGeometry>
        </mxCell>
        <mxCell id="1VQZmttFoH2Id-X8hUn1-170" value="&lt;u&gt;CategoryId&lt;/u&gt;" style="shape=partialRectangle;html=1;whiteSpace=wrap;connectable=0;strokeColor=inherit;overflow=hidden;fillColor=none;top=0;left=0;bottom=0;right=0;pointerEvents=1;fontSize=16;" vertex="1" parent="1VQZmttFoH2Id-X8hUn1-17">
          <mxGeometry x="920" width="110" height="54" as="geometry">
            <mxRectangle width="110" height="54" as="alternateBounds" />
          </mxGeometry>
        </mxCell>
        <mxCell id="1VQZmttFoH2Id-X8hUn1-24" value="Product" style="text;html=1;align=center;verticalAlign=middle;resizable=0;points=[];autosize=1;strokeColor=none;fillColor=none;fontSize=14;fontStyle=1" vertex="1" parent="1">
          <mxGeometry x="50" y="530" width="70" height="30" as="geometry" />
        </mxCell>
        <mxCell id="1VQZmttFoH2Id-X8hUn1-28" value="" style="shape=table;startSize=0;container=1;collapsible=0;childLayout=tableLayout;fontSize=16;movable=1;resizable=1;rotatable=1;deletable=1;editable=1;locked=0;connectable=1;" vertex="1" parent="1">
          <mxGeometry x="70" y="-160" width="950.0000000000002" height="50" as="geometry" />
        </mxCell>
        <mxCell id="1VQZmttFoH2Id-X8hUn1-29" value="" style="shape=tableRow;horizontal=0;startSize=0;swimlaneHead=0;swimlaneBody=0;strokeColor=inherit;top=0;left=0;bottom=0;right=0;collapsible=0;dropTarget=0;fillColor=none;points=[[0,0.5],[1,0.5]];portConstraint=eastwest;fontSize=16;movable=1;resizable=1;rotatable=1;deletable=1;editable=1;locked=0;connectable=1;" vertex="1" parent="1VQZmttFoH2Id-X8hUn1-28">
          <mxGeometry width="950.0000000000002" height="50" as="geometry" />
        </mxCell>
        <mxCell id="1VQZmttFoH2Id-X8hUn1-30" value="&lt;u&gt;UserId&lt;/u&gt;" style="shape=partialRectangle;html=1;whiteSpace=wrap;connectable=0;strokeColor=inherit;overflow=hidden;fillColor=none;top=0;left=0;bottom=0;right=0;pointerEvents=1;fontSize=16;" vertex="1" parent="1VQZmttFoH2Id-X8hUn1-29">
          <mxGeometry width="80" height="50" as="geometry">
            <mxRectangle width="80" height="50" as="alternateBounds" />
          </mxGeometry>
        </mxCell>
        <mxCell id="1VQZmttFoH2Id-X8hUn1-31" value="FName" style="shape=partialRectangle;html=1;whiteSpace=wrap;connectable=0;strokeColor=inherit;overflow=hidden;fillColor=none;top=0;left=0;bottom=0;right=0;pointerEvents=1;fontSize=16;" vertex="1" parent="1VQZmttFoH2Id-X8hUn1-29">
          <mxGeometry x="80" width="80" height="50" as="geometry">
            <mxRectangle width="80" height="50" as="alternateBounds" />
          </mxGeometry>
        </mxCell>
        <mxCell id="1VQZmttFoH2Id-X8hUn1-32" value="LName" style="shape=partialRectangle;html=1;whiteSpace=wrap;connectable=0;strokeColor=inherit;overflow=hidden;fillColor=none;top=0;left=0;bottom=0;right=0;pointerEvents=1;fontSize=16;" vertex="1" parent="1VQZmttFoH2Id-X8hUn1-29">
          <mxGeometry x="160" width="80" height="50" as="geometry">
            <mxRectangle width="80" height="50" as="alternateBounds" />
          </mxGeometry>
        </mxCell>
        <mxCell id="1VQZmttFoH2Id-X8hUn1-33" value="PNumber" style="shape=partialRectangle;html=1;whiteSpace=wrap;connectable=0;strokeColor=inherit;overflow=hidden;fillColor=none;top=0;left=0;bottom=0;right=0;pointerEvents=1;fontSize=16;" vertex="1" parent="1VQZmttFoH2Id-X8hUn1-29">
          <mxGeometry x="240" width="90" height="50" as="geometry">
            <mxRectangle width="90" height="50" as="alternateBounds" />
          </mxGeometry>
        </mxCell>
        <mxCell id="1VQZmttFoH2Id-X8hUn1-34" value="Username" style="shape=partialRectangle;html=1;whiteSpace=wrap;connectable=0;strokeColor=inherit;overflow=hidden;fillColor=none;top=0;left=0;bottom=0;right=0;pointerEvents=1;fontSize=16;" vertex="1" parent="1VQZmttFoH2Id-X8hUn1-29">
          <mxGeometry x="330" width="100" height="50" as="geometry">
            <mxRectangle width="100" height="50" as="alternateBounds" />
          </mxGeometry>
        </mxCell>
        <mxCell id="1VQZmttFoH2Id-X8hUn1-35" value=" RegisteratonDate" style="shape=partialRectangle;html=1;whiteSpace=wrap;connectable=0;strokeColor=inherit;overflow=hidden;fillColor=none;top=0;left=0;bottom=0;right=0;pointerEvents=1;fontSize=16;" vertex="1" parent="1VQZmttFoH2Id-X8hUn1-29">
          <mxGeometry x="430" width="150" height="50" as="geometry">
            <mxRectangle width="150" height="50" as="alternateBounds" />
          </mxGeometry>
        </mxCell>
        <mxCell id="1VQZmttFoH2Id-X8hUn1-36" value="LastLogIn" style="shape=partialRectangle;html=1;whiteSpace=wrap;connectable=0;strokeColor=inherit;overflow=hidden;fillColor=none;top=0;left=0;bottom=0;right=0;pointerEvents=1;fontSize=16;" vertex="1" parent="1VQZmttFoH2Id-X8hUn1-29">
          <mxGeometry x="580" width="100" height="50" as="geometry">
            <mxRectangle width="100" height="50" as="alternateBounds" />
          </mxGeometry>
        </mxCell>
        <mxCell id="1VQZmttFoH2Id-X8hUn1-37" value="IsActive" style="shape=partialRectangle;html=1;whiteSpace=wrap;connectable=0;strokeColor=inherit;overflow=hidden;fillColor=none;top=0;left=0;bottom=0;right=0;pointerEvents=1;fontSize=16;" vertex="1" parent="1VQZmttFoH2Id-X8hUn1-29">
          <mxGeometry x="680" width="90" height="50" as="geometry">
            <mxRectangle width="90" height="50" as="alternateBounds" />
          </mxGeometry>
        </mxCell>
        <mxCell id="1VQZmttFoH2Id-X8hUn1-39" value="&#xa; Type&#xa;&#xa;&#xa;" style="shape=partialRectangle;html=1;whiteSpace=wrap;connectable=0;strokeColor=inherit;overflow=hidden;fillColor=none;top=0;left=0;bottom=0;right=0;pointerEvents=1;fontSize=16;" vertex="1" parent="1VQZmttFoH2Id-X8hUn1-29">
          <mxGeometry x="770" width="90" height="50" as="geometry">
            <mxRectangle width="90" height="50" as="alternateBounds" />
          </mxGeometry>
        </mxCell>
        <mxCell id="1VQZmttFoH2Id-X8hUn1-40" value="&#xa;Address&#xa;&#xa;" style="shape=partialRectangle;html=1;whiteSpace=wrap;connectable=0;strokeColor=inherit;overflow=hidden;fillColor=none;top=0;left=0;bottom=0;right=0;pointerEvents=1;fontSize=16;" vertex="1" parent="1VQZmttFoH2Id-X8hUn1-29">
          <mxGeometry x="860" width="90" height="50" as="geometry">
            <mxRectangle width="90" height="50" as="alternateBounds" />
          </mxGeometry>
        </mxCell>
        <mxCell id="1VQZmttFoH2Id-X8hUn1-38" value="User" style="text;html=1;align=center;verticalAlign=middle;resizable=0;points=[];autosize=1;strokeColor=none;fillColor=none;fontSize=14;fontStyle=1" vertex="1" parent="1">
          <mxGeometry x="70" y="-190" width="50" height="30" as="geometry" />
        </mxCell>
        <mxCell id="1VQZmttFoH2Id-X8hUn1-56" value="" style="shape=table;startSize=0;container=1;collapsible=0;childLayout=tableLayout;fontSize=16;" vertex="1" parent="1">
          <mxGeometry x="50" y="260" width="810" height="50" as="geometry" />
        </mxCell>
        <mxCell id="1VQZmttFoH2Id-X8hUn1-57" value="" style="shape=tableRow;horizontal=0;startSize=0;swimlaneHead=0;swimlaneBody=0;strokeColor=inherit;top=0;left=0;bottom=0;right=0;collapsible=0;dropTarget=0;fillColor=none;points=[[0,0.5],[1,0.5]];portConstraint=eastwest;fontSize=16;" vertex="1" parent="1VQZmttFoH2Id-X8hUn1-56">
          <mxGeometry width="810" height="50" as="geometry" />
        </mxCell>
        <mxCell id="1VQZmttFoH2Id-X8hUn1-58" value="&lt;u&gt;OrderId&lt;/u&gt;" style="shape=partialRectangle;html=1;whiteSpace=wrap;connectable=0;strokeColor=inherit;overflow=hidden;fillColor=none;top=0;left=0;bottom=0;right=0;pointerEvents=1;fontSize=16;" vertex="1" parent="1VQZmttFoH2Id-X8hUn1-57">
          <mxGeometry width="77" height="50" as="geometry">
            <mxRectangle width="77" height="50" as="alternateBounds" />
          </mxGeometry>
        </mxCell>
        <mxCell id="1VQZmttFoH2Id-X8hUn1-59" value="&lt;div style=&quot;&quot;&gt;&lt;span style=&quot;background-color: transparent; color: light-dark(rgb(0, 0, 0), rgb(255, 255, 255));&quot;&gt;OrderStatus&lt;/span&gt;&lt;/div&gt;" style="shape=partialRectangle;html=1;whiteSpace=wrap;connectable=0;strokeColor=inherit;overflow=hidden;fillColor=none;top=0;left=0;bottom=0;right=0;pointerEvents=1;fontSize=16;align=center;" vertex="1" parent="1VQZmttFoH2Id-X8hUn1-57">
          <mxGeometry x="77" width="113" height="50" as="geometry">
            <mxRectangle width="113" height="50" as="alternateBounds" />
          </mxGeometry>
        </mxCell>
        <mxCell id="1VQZmttFoH2Id-X8hUn1-60" value="OrderDate" style="shape=partialRectangle;html=1;whiteSpace=wrap;connectable=0;strokeColor=inherit;overflow=hidden;fillColor=none;top=0;left=0;bottom=0;right=0;pointerEvents=1;fontSize=16;" vertex="1" parent="1VQZmttFoH2Id-X8hUn1-57">
          <mxGeometry x="190" width="90" height="50" as="geometry">
            <mxRectangle width="90" height="50" as="alternateBounds" />
          </mxGeometry>
        </mxCell>
        <mxCell id="1VQZmttFoH2Id-X8hUn1-72" value="ShippingMethod" style="shape=partialRectangle;html=1;whiteSpace=wrap;connectable=0;strokeColor=inherit;overflow=hidden;fillColor=none;top=0;left=0;bottom=0;right=0;pointerEvents=1;fontSize=16;" vertex="1" parent="1VQZmttFoH2Id-X8hUn1-57">
          <mxGeometry x="280" width="140" height="50" as="geometry">
            <mxRectangle width="140" height="50" as="alternateBounds" />
          </mxGeometry>
        </mxCell>
        <mxCell id="1VQZmttFoH2Id-X8hUn1-71" value="TrackingNumber" style="shape=partialRectangle;html=1;whiteSpace=wrap;connectable=0;strokeColor=inherit;overflow=hidden;fillColor=none;top=0;left=0;bottom=0;right=0;pointerEvents=1;fontSize=16;" vertex="1" parent="1VQZmttFoH2Id-X8hUn1-57">
          <mxGeometry x="420" width="130" height="50" as="geometry">
            <mxRectangle width="130" height="50" as="alternateBounds" />
          </mxGeometry>
        </mxCell>
        <mxCell id="1VQZmttFoH2Id-X8hUn1-70" value="ShippingCost" style="shape=partialRectangle;html=1;whiteSpace=wrap;connectable=0;strokeColor=inherit;overflow=hidden;fillColor=none;top=0;left=0;bottom=0;right=0;pointerEvents=1;fontSize=16;" vertex="1" parent="1VQZmttFoH2Id-X8hUn1-57">
          <mxGeometry x="550" width="120" height="50" as="geometry">
            <mxRectangle width="120" height="50" as="alternateBounds" />
          </mxGeometry>
        </mxCell>
        <mxCell id="1VQZmttFoH2Id-X8hUn1-69" value="Tax" style="shape=partialRectangle;html=1;whiteSpace=wrap;connectable=0;strokeColor=inherit;overflow=hidden;fillColor=none;top=0;left=0;bottom=0;right=0;pointerEvents=1;fontSize=16;" vertex="1" parent="1VQZmttFoH2Id-X8hUn1-57">
          <mxGeometry x="670" width="70" height="50" as="geometry">
            <mxRectangle width="70" height="50" as="alternateBounds" />
          </mxGeometry>
        </mxCell>
        <mxCell id="1VQZmttFoH2Id-X8hUn1-142" value="UserId" style="shape=partialRectangle;html=1;whiteSpace=wrap;connectable=0;strokeColor=inherit;overflow=hidden;fillColor=none;top=0;left=0;bottom=0;right=0;pointerEvents=1;fontSize=16;" vertex="1" parent="1VQZmttFoH2Id-X8hUn1-57">
          <mxGeometry x="740" width="70" height="50" as="geometry">
            <mxRectangle width="70" height="50" as="alternateBounds" />
          </mxGeometry>
        </mxCell>
        <mxCell id="1VQZmttFoH2Id-X8hUn1-73" value="&lt;b&gt;&lt;font style=&quot;font-size: 15px;&quot;&gt;Order&lt;/font&gt;&lt;/b&gt;" style="text;html=1;align=center;verticalAlign=middle;resizable=0;points=[];autosize=1;strokeColor=none;fillColor=none;" vertex="1" parent="1">
          <mxGeometry x="50" y="230" width="60" height="30" as="geometry" />
        </mxCell>
        <mxCell id="1VQZmttFoH2Id-X8hUn1-74" value="" style="shape=table;startSize=0;container=1;collapsible=0;childLayout=tableLayout;fontSize=16;" vertex="1" parent="1">
          <mxGeometry x="380" y="389" width="487" height="50" as="geometry" />
        </mxCell>
        <mxCell id="1VQZmttFoH2Id-X8hUn1-75" value="" style="shape=tableRow;horizontal=0;startSize=0;swimlaneHead=0;swimlaneBody=0;strokeColor=inherit;top=0;left=0;bottom=0;right=0;collapsible=0;dropTarget=0;fillColor=none;points=[[0,0.5],[1,0.5]];portConstraint=eastwest;fontSize=16;" vertex="1" parent="1VQZmttFoH2Id-X8hUn1-74">
          <mxGeometry width="487" height="50" as="geometry" />
        </mxCell>
        <mxCell id="1VQZmttFoH2Id-X8hUn1-76" value="&lt;u&gt;&amp;nbsp;OrderItemId&amp;nbsp;&lt;/u&gt;" style="shape=partialRectangle;html=1;whiteSpace=wrap;connectable=0;strokeColor=inherit;overflow=hidden;fillColor=none;top=0;left=0;bottom=0;right=0;pointerEvents=1;fontSize=16;" vertex="1" parent="1VQZmttFoH2Id-X8hUn1-75">
          <mxGeometry width="113" height="50" as="geometry">
            <mxRectangle width="113" height="50" as="alternateBounds" />
          </mxGeometry>
        </mxCell>
        <mxCell id="1VQZmttFoH2Id-X8hUn1-144" value="&lt;u&gt;OrderId&lt;/u&gt;" style="shape=partialRectangle;html=1;whiteSpace=wrap;connectable=0;strokeColor=inherit;overflow=hidden;fillColor=none;top=0;left=0;bottom=0;right=0;pointerEvents=1;fontSize=16;" vertex="1" parent="1VQZmttFoH2Id-X8hUn1-75">
          <mxGeometry x="113" width="97" height="50" as="geometry">
            <mxRectangle width="97" height="50" as="alternateBounds" />
          </mxGeometry>
        </mxCell>
        <mxCell id="1VQZmttFoH2Id-X8hUn1-77" value="Quantity" style="shape=partialRectangle;html=1;whiteSpace=wrap;connectable=0;strokeColor=inherit;overflow=hidden;fillColor=none;top=0;left=0;bottom=0;right=0;pointerEvents=1;fontSize=16;" vertex="1" parent="1VQZmttFoH2Id-X8hUn1-75">
          <mxGeometry x="210" width="97" height="50" as="geometry">
            <mxRectangle width="97" height="50" as="alternateBounds" />
          </mxGeometry>
        </mxCell>
        <mxCell id="1VQZmttFoH2Id-X8hUn1-78" value="Price" style="shape=partialRectangle;html=1;whiteSpace=wrap;connectable=0;strokeColor=inherit;overflow=hidden;fillColor=none;top=0;left=0;bottom=0;right=0;pointerEvents=1;fontSize=16;" vertex="1" parent="1VQZmttFoH2Id-X8hUn1-75">
          <mxGeometry x="307" width="100" height="50" as="geometry">
            <mxRectangle width="100" height="50" as="alternateBounds" />
          </mxGeometry>
        </mxCell>
        <mxCell id="1VQZmttFoH2Id-X8hUn1-88" value="Discount" style="shape=partialRectangle;html=1;whiteSpace=wrap;connectable=0;strokeColor=inherit;overflow=hidden;fillColor=none;top=0;left=0;bottom=0;right=0;pointerEvents=1;fontSize=16;" vertex="1" parent="1VQZmttFoH2Id-X8hUn1-75">
          <mxGeometry x="407" width="80" height="50" as="geometry">
            <mxRectangle width="80" height="50" as="alternateBounds" />
          </mxGeometry>
        </mxCell>
        <mxCell id="1VQZmttFoH2Id-X8hUn1-87" value="&lt;b&gt;&lt;font style=&quot;font-size: 15px;&quot;&gt;Order_Item&lt;/font&gt;&lt;/b&gt;" style="text;html=1;align=center;verticalAlign=middle;resizable=0;points=[];autosize=1;strokeColor=none;fillColor=none;" vertex="1" parent="1">
          <mxGeometry x="370" y="359" width="100" height="30" as="geometry" />
        </mxCell>
        <mxCell id="1VQZmttFoH2Id-X8hUn1-96" value="&lt;b&gt;&lt;font style=&quot;font-size: 15px;&quot;&gt;Payment&lt;/font&gt;&lt;/b&gt;" style="text;html=1;align=center;verticalAlign=middle;resizable=0;points=[];autosize=1;strokeColor=none;fillColor=none;" vertex="1" parent="1">
          <mxGeometry x="330" y="-90" width="90" height="30" as="geometry" />
        </mxCell>
        <mxCell id="1VQZmttFoH2Id-X8hUn1-98" value="" style="shape=table;startSize=0;container=1;collapsible=0;childLayout=tableLayout;fontSize=16;" vertex="1" parent="1">
          <mxGeometry x="90" y="700" width="280" height="50" as="geometry" />
        </mxCell>
        <mxCell id="1VQZmttFoH2Id-X8hUn1-99" value="" style="shape=tableRow;horizontal=0;startSize=0;swimlaneHead=0;swimlaneBody=0;strokeColor=inherit;top=0;left=0;bottom=0;right=0;collapsible=0;dropTarget=0;fillColor=none;points=[[0,0.5],[1,0.5]];portConstraint=eastwest;fontSize=16;" vertex="1" parent="1VQZmttFoH2Id-X8hUn1-98">
          <mxGeometry width="280" height="50" as="geometry" />
        </mxCell>
        <mxCell id="1VQZmttFoH2Id-X8hUn1-100" value="&lt;u&gt;CartId&lt;/u&gt;" style="shape=partialRectangle;html=1;whiteSpace=wrap;connectable=0;strokeColor=inherit;overflow=hidden;fillColor=none;top=0;left=0;bottom=0;right=0;pointerEvents=1;fontSize=16;" vertex="1" parent="1VQZmttFoH2Id-X8hUn1-99">
          <mxGeometry width="70" height="50" as="geometry">
            <mxRectangle width="70" height="50" as="alternateBounds" />
          </mxGeometry>
        </mxCell>
        <mxCell id="1VQZmttFoH2Id-X8hUn1-101" value="LastUpdate" style="shape=partialRectangle;html=1;whiteSpace=wrap;connectable=0;strokeColor=inherit;overflow=hidden;fillColor=none;top=0;left=0;bottom=0;right=0;pointerEvents=1;fontSize=16;" vertex="1" parent="1VQZmttFoH2Id-X8hUn1-99">
          <mxGeometry x="70" width="100" height="50" as="geometry">
            <mxRectangle width="100" height="50" as="alternateBounds" />
          </mxGeometry>
        </mxCell>
        <mxCell id="1VQZmttFoH2Id-X8hUn1-102" value="CreatedDate" style="shape=partialRectangle;html=1;whiteSpace=wrap;connectable=0;strokeColor=inherit;overflow=hidden;fillColor=none;top=0;left=0;bottom=0;right=0;pointerEvents=1;fontSize=16;" vertex="1" parent="1VQZmttFoH2Id-X8hUn1-99">
          <mxGeometry x="170" width="110" height="50" as="geometry">
            <mxRectangle width="110" height="50" as="alternateBounds" />
          </mxGeometry>
        </mxCell>
        <mxCell id="1VQZmttFoH2Id-X8hUn1-111" value="&lt;b&gt;&lt;font style=&quot;font-size: 15px;&quot;&gt;Cart&lt;/font&gt;&lt;/b&gt;" style="text;html=1;align=center;verticalAlign=middle;resizable=0;points=[];autosize=1;strokeColor=none;fillColor=none;" vertex="1" parent="1">
          <mxGeometry x="90" y="670" width="50" height="30" as="geometry" />
        </mxCell>
        <mxCell id="1VQZmttFoH2Id-X8hUn1-112" value="" style="shape=table;startSize=0;container=1;collapsible=0;childLayout=tableLayout;fontSize=16;" vertex="1" parent="1">
          <mxGeometry x="380" y="860" width="370" height="50" as="geometry" />
        </mxCell>
        <mxCell id="1VQZmttFoH2Id-X8hUn1-113" value="" style="shape=tableRow;horizontal=0;startSize=0;swimlaneHead=0;swimlaneBody=0;strokeColor=inherit;top=0;left=0;bottom=0;right=0;collapsible=0;dropTarget=0;fillColor=none;points=[[0,0.5],[1,0.5]];portConstraint=eastwest;fontSize=16;" vertex="1" parent="1VQZmttFoH2Id-X8hUn1-112">
          <mxGeometry width="370" height="50" as="geometry" />
        </mxCell>
        <mxCell id="1VQZmttFoH2Id-X8hUn1-114" value="&lt;u&gt;CartItem&lt;/u&gt;" style="shape=partialRectangle;html=1;whiteSpace=wrap;connectable=0;strokeColor=inherit;overflow=hidden;fillColor=none;top=0;left=0;bottom=0;right=0;pointerEvents=1;fontSize=16;" vertex="1" parent="1VQZmttFoH2Id-X8hUn1-113">
          <mxGeometry width="70" height="50" as="geometry">
            <mxRectangle width="70" height="50" as="alternateBounds" />
          </mxGeometry>
        </mxCell>
        <mxCell id="1VQZmttFoH2Id-X8hUn1-157" value="&lt;u&gt;CartId&lt;/u&gt;" style="shape=partialRectangle;html=1;whiteSpace=wrap;connectable=0;strokeColor=inherit;overflow=hidden;fillColor=none;top=0;left=0;bottom=0;right=0;pointerEvents=1;fontSize=16;" vertex="1" parent="1VQZmttFoH2Id-X8hUn1-113">
          <mxGeometry x="70" width="90" height="50" as="geometry">
            <mxRectangle width="90" height="50" as="alternateBounds" />
          </mxGeometry>
        </mxCell>
        <mxCell id="1VQZmttFoH2Id-X8hUn1-115" value="Quantity" style="shape=partialRectangle;html=1;whiteSpace=wrap;connectable=0;strokeColor=inherit;overflow=hidden;fillColor=none;top=0;left=0;bottom=0;right=0;pointerEvents=1;fontSize=16;" vertex="1" parent="1VQZmttFoH2Id-X8hUn1-113">
          <mxGeometry x="160" width="90" height="50" as="geometry">
            <mxRectangle width="90" height="50" as="alternateBounds" />
          </mxGeometry>
        </mxCell>
        <mxCell id="1VQZmttFoH2Id-X8hUn1-116" value="DateAdded" style="shape=partialRectangle;html=1;whiteSpace=wrap;connectable=0;strokeColor=inherit;overflow=hidden;fillColor=none;top=0;left=0;bottom=0;right=0;pointerEvents=1;fontSize=16;" vertex="1" parent="1VQZmttFoH2Id-X8hUn1-113">
          <mxGeometry x="250" width="120" height="50" as="geometry">
            <mxRectangle width="120" height="50" as="alternateBounds" />
          </mxGeometry>
        </mxCell>
        <mxCell id="1VQZmttFoH2Id-X8hUn1-117" value="&lt;b&gt;&lt;font style=&quot;font-size: 15px;&quot;&gt;Cart_Item&lt;/font&gt;&lt;/b&gt;" style="text;html=1;align=center;verticalAlign=middle;resizable=0;points=[];autosize=1;strokeColor=none;fillColor=none;" vertex="1" parent="1">
          <mxGeometry x="370" y="827" width="90" height="30" as="geometry" />
        </mxCell>
        <mxCell id="1VQZmttFoH2Id-X8hUn1-119" value="" style="shape=table;startSize=0;container=1;collapsible=0;childLayout=tableLayout;fontSize=16;" vertex="1" parent="1">
          <mxGeometry x="460" y="130" width="280" height="50" as="geometry" />
        </mxCell>
        <mxCell id="1VQZmttFoH2Id-X8hUn1-120" value="" style="shape=tableRow;horizontal=0;startSize=0;swimlaneHead=0;swimlaneBody=0;strokeColor=inherit;top=0;left=0;bottom=0;right=0;collapsible=0;dropTarget=0;fillColor=none;points=[[0,0.5],[1,0.5]];portConstraint=eastwest;fontSize=16;" vertex="1" parent="1VQZmttFoH2Id-X8hUn1-119">
          <mxGeometry width="280" height="50" as="geometry" />
        </mxCell>
        <mxCell id="1VQZmttFoH2Id-X8hUn1-121" value="&lt;u&gt;PaymentId&lt;/u&gt;" style="shape=partialRectangle;html=1;whiteSpace=wrap;connectable=0;strokeColor=inherit;overflow=hidden;fillColor=none;top=0;left=0;bottom=0;right=0;pointerEvents=1;fontSize=16;" vertex="1" parent="1VQZmttFoH2Id-X8hUn1-120">
          <mxGeometry width="110" height="50" as="geometry">
            <mxRectangle width="110" height="50" as="alternateBounds" />
          </mxGeometry>
        </mxCell>
        <mxCell id="1VQZmttFoH2Id-X8hUn1-122" value="&lt;u&gt;PaymentMethod&lt;/u&gt;" style="shape=partialRectangle;html=1;whiteSpace=wrap;connectable=0;strokeColor=inherit;overflow=hidden;fillColor=none;top=0;left=0;bottom=0;right=0;pointerEvents=1;fontSize=16;" vertex="1" parent="1VQZmttFoH2Id-X8hUn1-120">
          <mxGeometry x="110" width="170" height="50" as="geometry">
            <mxRectangle width="170" height="50" as="alternateBounds" />
          </mxGeometry>
        </mxCell>
        <mxCell id="1VQZmttFoH2Id-X8hUn1-133" value="&lt;span style=&quot;font-size: 16px; text-wrap-mode: wrap;&quot;&gt;&lt;b&gt;PaymentMethod&lt;/b&gt;&lt;/span&gt;" style="text;html=1;align=center;verticalAlign=middle;resizable=0;points=[];autosize=1;strokeColor=none;fillColor=none;" vertex="1" parent="1">
          <mxGeometry x="435" y="100" width="150" height="30" as="geometry" />
        </mxCell>
        <mxCell id="1VQZmttFoH2Id-X8hUn1-134" style="edgeStyle=orthogonalEdgeStyle;rounded=0;orthogonalLoop=1;jettySize=auto;html=1;entryX=0.172;entryY=0.928;entryDx=0;entryDy=0;entryPerimeter=0;exitX=0.529;exitY=-0.008;exitDx=0;exitDy=0;exitPerimeter=0;" edge="1" parent="1" source="1VQZmttFoH2Id-X8hUn1-120" target="1VQZmttFoH2Id-X8hUn1-91">
          <mxGeometry relative="1" as="geometry">
            <Array as="points">
              <mxPoint x="608" y="80" />
              <mxPoint x="410" y="80" />
              <mxPoint x="410" y="4" />
            </Array>
          </mxGeometry>
        </mxCell>
        <mxCell id="1VQZmttFoH2Id-X8hUn1-135" value="" style="shape=table;startSize=0;container=1;collapsible=0;childLayout=tableLayout;fontSize=16;" vertex="1" parent="1">
          <mxGeometry x="80" y="130" width="240" height="50" as="geometry" />
        </mxCell>
        <mxCell id="1VQZmttFoH2Id-X8hUn1-136" value="" style="shape=tableRow;horizontal=0;startSize=0;swimlaneHead=0;swimlaneBody=0;strokeColor=inherit;top=0;left=0;bottom=0;right=0;collapsible=0;dropTarget=0;fillColor=none;points=[[0,0.5],[1,0.5]];portConstraint=eastwest;fontSize=16;" vertex="1" parent="1VQZmttFoH2Id-X8hUn1-135">
          <mxGeometry width="240" height="50" as="geometry" />
        </mxCell>
        <mxCell id="1VQZmttFoH2Id-X8hUn1-137" value="&lt;u&gt;UserId&lt;/u&gt;" style="shape=partialRectangle;html=1;whiteSpace=wrap;connectable=0;strokeColor=inherit;overflow=hidden;fillColor=none;top=0;left=0;bottom=0;right=0;pointerEvents=1;fontSize=16;" vertex="1" parent="1VQZmttFoH2Id-X8hUn1-136">
          <mxGeometry width="110" height="50" as="geometry">
            <mxRectangle width="110" height="50" as="alternateBounds" />
          </mxGeometry>
        </mxCell>
        <mxCell id="1VQZmttFoH2Id-X8hUn1-138" value="&lt;u&gt;PaymentId&lt;/u&gt;" style="shape=partialRectangle;html=1;whiteSpace=wrap;connectable=0;strokeColor=inherit;overflow=hidden;fillColor=none;top=0;left=0;bottom=0;right=0;pointerEvents=1;fontSize=16;" vertex="1" parent="1VQZmttFoH2Id-X8hUn1-136">
          <mxGeometry x="110" width="130" height="50" as="geometry">
            <mxRectangle width="130" height="50" as="alternateBounds" />
          </mxGeometry>
        </mxCell>
        <mxCell id="1VQZmttFoH2Id-X8hUn1-140" style="edgeStyle=orthogonalEdgeStyle;rounded=0;orthogonalLoop=1;jettySize=auto;html=1;entryX=0;entryY=0.5;entryDx=0;entryDy=0;exitX=0;exitY=0.5;exitDx=0;exitDy=0;" edge="1" parent="1" source="1VQZmttFoH2Id-X8hUn1-136" target="1VQZmttFoH2Id-X8hUn1-29">
          <mxGeometry relative="1" as="geometry">
            <Array as="points">
              <mxPoint x="50" y="155" />
              <mxPoint x="50" y="-135" />
            </Array>
          </mxGeometry>
        </mxCell>
        <mxCell id="1VQZmttFoH2Id-X8hUn1-139" value="&lt;b&gt;&lt;font style=&quot;font-size: 15px;&quot;&gt;User_Payment&lt;/font&gt;&lt;/b&gt;" style="text;html=1;align=center;verticalAlign=middle;resizable=0;points=[];autosize=1;strokeColor=none;fillColor=none;" vertex="1" parent="1">
          <mxGeometry x="70" y="100" width="130" height="30" as="geometry" />
        </mxCell>
        <mxCell id="1VQZmttFoH2Id-X8hUn1-141" style="edgeStyle=orthogonalEdgeStyle;rounded=0;orthogonalLoop=1;jettySize=auto;html=1;entryX=0.043;entryY=1.088;entryDx=0;entryDy=0;entryPerimeter=0;exitX=0.738;exitY=0;exitDx=0;exitDy=0;exitPerimeter=0;" edge="1" parent="1" source="1VQZmttFoH2Id-X8hUn1-136" target="1VQZmttFoH2Id-X8hUn1-91">
          <mxGeometry relative="1" as="geometry">
            <Array as="points">
              <mxPoint x="253" y="130" />
              <mxPoint x="253" y="110" />
              <mxPoint x="350" y="110" />
            </Array>
          </mxGeometry>
        </mxCell>
        <mxCell id="1VQZmttFoH2Id-X8hUn1-90" value="" style="shape=table;startSize=0;container=1;collapsible=0;childLayout=tableLayout;fontSize=16;" vertex="1" parent="1">
          <mxGeometry x="330" y="-50" width="460" height="50" as="geometry" />
        </mxCell>
        <mxCell id="1VQZmttFoH2Id-X8hUn1-91" value="" style="shape=tableRow;horizontal=0;startSize=0;swimlaneHead=0;swimlaneBody=0;strokeColor=inherit;top=0;left=0;bottom=0;right=0;collapsible=0;dropTarget=0;fillColor=none;points=[[0,0.5],[1,0.5]];portConstraint=eastwest;fontSize=16;" vertex="1" parent="1VQZmttFoH2Id-X8hUn1-90">
          <mxGeometry width="460" height="50" as="geometry" />
        </mxCell>
        <mxCell id="1VQZmttFoH2Id-X8hUn1-92" value="&lt;u&gt;PaymentId&lt;/u&gt;" style="shape=partialRectangle;html=1;whiteSpace=wrap;connectable=0;strokeColor=inherit;overflow=hidden;fillColor=none;top=0;left=0;bottom=0;right=0;pointerEvents=1;fontSize=16;" vertex="1" parent="1VQZmttFoH2Id-X8hUn1-91">
          <mxGeometry width="113" height="50" as="geometry">
            <mxRectangle width="113" height="50" as="alternateBounds" />
          </mxGeometry>
        </mxCell>
        <mxCell id="1VQZmttFoH2Id-X8hUn1-93" value="Amount" style="shape=partialRectangle;html=1;whiteSpace=wrap;connectable=0;strokeColor=inherit;overflow=hidden;fillColor=none;top=0;left=0;bottom=0;right=0;pointerEvents=1;fontSize=16;" vertex="1" parent="1VQZmttFoH2Id-X8hUn1-91">
          <mxGeometry x="113" width="87" height="50" as="geometry">
            <mxRectangle width="87" height="50" as="alternateBounds" />
          </mxGeometry>
        </mxCell>
        <mxCell id="1VQZmttFoH2Id-X8hUn1-94" value="PaymentDate" style="shape=partialRectangle;html=1;whiteSpace=wrap;connectable=0;strokeColor=inherit;overflow=hidden;fillColor=none;top=0;left=0;bottom=0;right=0;pointerEvents=1;fontSize=16;" vertex="1" parent="1VQZmttFoH2Id-X8hUn1-91">
          <mxGeometry x="200" width="120" height="50" as="geometry">
            <mxRectangle width="120" height="50" as="alternateBounds" />
          </mxGeometry>
        </mxCell>
        <mxCell id="1VQZmttFoH2Id-X8hUn1-95" value="PaymentMethod" style="shape=partialRectangle;html=1;whiteSpace=wrap;connectable=0;strokeColor=inherit;overflow=hidden;fillColor=none;top=0;left=0;bottom=0;right=0;pointerEvents=1;fontSize=16;" vertex="1" parent="1VQZmttFoH2Id-X8hUn1-91">
          <mxGeometry x="320" width="140" height="50" as="geometry">
            <mxRectangle width="140" height="50" as="alternateBounds" />
          </mxGeometry>
        </mxCell>
        <mxCell id="1VQZmttFoH2Id-X8hUn1-143" style="edgeStyle=orthogonalEdgeStyle;rounded=0;orthogonalLoop=1;jettySize=auto;html=1;entryX=-0.002;entryY=0.248;entryDx=0;entryDy=0;entryPerimeter=0;" edge="1" parent="1" source="1VQZmttFoH2Id-X8hUn1-57" target="1VQZmttFoH2Id-X8hUn1-29">
          <mxGeometry relative="1" as="geometry">
            <Array as="points">
              <mxPoint x="880" y="265" />
              <mxPoint x="880" y="220" />
              <mxPoint x="30" y="220" />
              <mxPoint x="30" y="-148" />
            </Array>
          </mxGeometry>
        </mxCell>
        <mxCell id="1VQZmttFoH2Id-X8hUn1-145" style="edgeStyle=orthogonalEdgeStyle;rounded=0;orthogonalLoop=1;jettySize=auto;html=1;exitX=0.349;exitY=0.02;exitDx=0;exitDy=0;exitPerimeter=0;entryX=0.067;entryY=1.052;entryDx=0;entryDy=0;entryPerimeter=0;" edge="1" parent="1" source="1VQZmttFoH2Id-X8hUn1-75" target="1VQZmttFoH2Id-X8hUn1-57">
          <mxGeometry relative="1" as="geometry">
            <mxPoint x="70" y="320" as="targetPoint" />
            <Array as="points">
              <mxPoint x="550" y="350" />
              <mxPoint x="104" y="350" />
            </Array>
          </mxGeometry>
        </mxCell>
        <mxCell id="1VQZmttFoH2Id-X8hUn1-149" value="" style="shape=table;startSize=0;container=1;collapsible=0;childLayout=tableLayout;fontSize=16;" vertex="1" parent="1">
          <mxGeometry x="70" y="860" width="170" height="50" as="geometry" />
        </mxCell>
        <mxCell id="1VQZmttFoH2Id-X8hUn1-150" value="" style="shape=tableRow;horizontal=0;startSize=0;swimlaneHead=0;swimlaneBody=0;strokeColor=inherit;top=0;left=0;bottom=0;right=0;collapsible=0;dropTarget=0;fillColor=none;points=[[0,0.5],[1,0.5]];portConstraint=eastwest;fontSize=16;" vertex="1" parent="1VQZmttFoH2Id-X8hUn1-149">
          <mxGeometry width="170" height="50" as="geometry" />
        </mxCell>
        <mxCell id="1VQZmttFoH2Id-X8hUn1-151" value="&lt;u&gt;CartId&lt;/u&gt;" style="shape=partialRectangle;html=1;whiteSpace=wrap;connectable=0;strokeColor=inherit;overflow=hidden;fillColor=none;top=0;left=0;bottom=0;right=0;pointerEvents=1;fontSize=16;" vertex="1" parent="1VQZmttFoH2Id-X8hUn1-150">
          <mxGeometry width="70" height="50" as="geometry">
            <mxRectangle width="70" height="50" as="alternateBounds" />
          </mxGeometry>
        </mxCell>
        <mxCell id="1VQZmttFoH2Id-X8hUn1-152" value="&lt;u&gt;ProductId&lt;/u&gt;" style="shape=partialRectangle;html=1;whiteSpace=wrap;connectable=0;strokeColor=inherit;overflow=hidden;fillColor=none;top=0;left=0;bottom=0;right=0;pointerEvents=1;fontSize=16;" vertex="1" parent="1VQZmttFoH2Id-X8hUn1-150">
          <mxGeometry x="70" width="100" height="50" as="geometry">
            <mxRectangle width="100" height="50" as="alternateBounds" />
          </mxGeometry>
        </mxCell>
        <mxCell id="1VQZmttFoH2Id-X8hUn1-154" value="&lt;font style=&quot;font-size: 15px;&quot;&gt;&lt;b&gt;Product_Cart&lt;/b&gt;&lt;/font&gt;" style="text;html=1;align=center;verticalAlign=middle;resizable=0;points=[];autosize=1;strokeColor=none;fillColor=none;" vertex="1" parent="1">
          <mxGeometry x="55" y="830" width="120" height="30" as="geometry" />
        </mxCell>
        <mxCell id="1VQZmttFoH2Id-X8hUn1-159" value="" style="shape=table;startSize=0;container=1;collapsible=0;childLayout=tableLayout;fontSize=16;" vertex="1" parent="1">
          <mxGeometry x="630" y="710" width="440" height="50" as="geometry" />
        </mxCell>
        <mxCell id="1VQZmttFoH2Id-X8hUn1-160" value="" style="shape=tableRow;horizontal=0;startSize=0;swimlaneHead=0;swimlaneBody=0;strokeColor=inherit;top=0;left=0;bottom=0;right=0;collapsible=0;dropTarget=0;fillColor=none;points=[[0,0.5],[1,0.5]];portConstraint=eastwest;fontSize=16;" vertex="1" parent="1VQZmttFoH2Id-X8hUn1-159">
          <mxGeometry width="440" height="50" as="geometry" />
        </mxCell>
        <mxCell id="1VQZmttFoH2Id-X8hUn1-161" value="&lt;u&gt;CategoryId&lt;/u&gt;" style="shape=partialRectangle;html=1;whiteSpace=wrap;connectable=0;strokeColor=inherit;overflow=hidden;fillColor=none;top=0;left=0;bottom=0;right=0;pointerEvents=1;fontSize=16;" vertex="1" parent="1VQZmttFoH2Id-X8hUn1-160">
          <mxGeometry width="100" height="50" as="geometry">
            <mxRectangle width="100" height="50" as="alternateBounds" />
          </mxGeometry>
        </mxCell>
        <mxCell id="1VQZmttFoH2Id-X8hUn1-162" value="Name" style="shape=partialRectangle;html=1;whiteSpace=wrap;connectable=0;strokeColor=inherit;overflow=hidden;fillColor=none;top=0;left=0;bottom=0;right=0;pointerEvents=1;fontSize=16;" vertex="1" parent="1VQZmttFoH2Id-X8hUn1-160">
          <mxGeometry x="100" width="70" height="50" as="geometry">
            <mxRectangle width="70" height="50" as="alternateBounds" />
          </mxGeometry>
        </mxCell>
        <mxCell id="1VQZmttFoH2Id-X8hUn1-163" value="Description" style="shape=partialRectangle;html=1;whiteSpace=wrap;connectable=0;strokeColor=inherit;overflow=hidden;fillColor=none;top=0;left=0;bottom=0;right=0;pointerEvents=1;fontSize=16;" vertex="1" parent="1VQZmttFoH2Id-X8hUn1-160">
          <mxGeometry x="170" width="120" height="50" as="geometry">
            <mxRectangle width="120" height="50" as="alternateBounds" />
          </mxGeometry>
        </mxCell>
        <mxCell id="1VQZmttFoH2Id-X8hUn1-168" value="ParentCategoryId" style="shape=partialRectangle;html=1;whiteSpace=wrap;connectable=0;strokeColor=inherit;overflow=hidden;fillColor=none;top=0;left=0;bottom=0;right=0;pointerEvents=1;fontSize=16;" vertex="1" parent="1VQZmttFoH2Id-X8hUn1-160">
          <mxGeometry x="290" width="150" height="50" as="geometry">
            <mxRectangle width="150" height="50" as="alternateBounds" />
          </mxGeometry>
        </mxCell>
        <mxCell id="1VQZmttFoH2Id-X8hUn1-169" style="edgeStyle=orthogonalEdgeStyle;rounded=0;orthogonalLoop=1;jettySize=auto;html=1;entryX=0.115;entryY=1.064;entryDx=0;entryDy=0;entryPerimeter=0;exitX=1;exitY=0.5;exitDx=0;exitDy=0;" edge="1" parent="1VQZmttFoH2Id-X8hUn1-159" source="1VQZmttFoH2Id-X8hUn1-160" target="1VQZmttFoH2Id-X8hUn1-160">
          <mxGeometry relative="1" as="geometry">
            <Array as="points">
              <mxPoint x="460" y="25" />
              <mxPoint x="460" y="80" />
              <mxPoint x="51" y="80" />
            </Array>
          </mxGeometry>
        </mxCell>
        <mxCell id="1VQZmttFoH2Id-X8hUn1-164" style="edgeStyle=orthogonalEdgeStyle;rounded=0;orthogonalLoop=1;jettySize=auto;html=1;exitX=0.362;exitY=0.015;exitDx=0;exitDy=0;exitPerimeter=0;" edge="1" parent="1" source="1VQZmttFoH2Id-X8hUn1-113">
          <mxGeometry relative="1" as="geometry">
            <mxPoint x="140" y="760" as="targetPoint" />
            <Array as="points">
              <mxPoint x="514" y="820" />
              <mxPoint x="140" y="820" />
            </Array>
          </mxGeometry>
        </mxCell>
        <mxCell id="1VQZmttFoH2Id-X8hUn1-165" style="edgeStyle=orthogonalEdgeStyle;rounded=0;orthogonalLoop=1;jettySize=auto;html=1;" edge="1" parent="1" source="1VQZmttFoH2Id-X8hUn1-150">
          <mxGeometry relative="1" as="geometry">
            <mxPoint x="90" y="720" as="targetPoint" />
            <Array as="points">
              <mxPoint x="50" y="885" />
              <mxPoint x="50" y="720" />
            </Array>
          </mxGeometry>
        </mxCell>
        <mxCell id="1VQZmttFoH2Id-X8hUn1-166" style="edgeStyle=orthogonalEdgeStyle;rounded=0;orthogonalLoop=1;jettySize=auto;html=1;exitX=1.02;exitY=0.631;exitDx=0;exitDy=0;exitPerimeter=0;" edge="1" parent="1" source="1VQZmttFoH2Id-X8hUn1-150">
          <mxGeometry relative="1" as="geometry">
            <mxPoint x="50" y="580" as="targetPoint" />
            <Array as="points">
              <mxPoint x="250" y="892" />
              <mxPoint x="250" y="930" />
              <mxPoint x="31" y="930" />
              <mxPoint x="31" y="581" />
              <mxPoint x="48" y="581" />
            </Array>
          </mxGeometry>
        </mxCell>
        <mxCell id="1VQZmttFoH2Id-X8hUn1-167" value="&lt;b&gt;&lt;font style=&quot;font-size: 15px;&quot;&gt;Category&lt;/font&gt;&lt;/b&gt;" style="text;html=1;align=center;verticalAlign=middle;resizable=0;points=[];autosize=1;strokeColor=none;fillColor=none;" vertex="1" parent="1">
          <mxGeometry x="620" y="680" width="90" height="30" as="geometry" />
        </mxCell>
        <mxCell id="1VQZmttFoH2Id-X8hUn1-171" style="edgeStyle=orthogonalEdgeStyle;rounded=0;orthogonalLoop=1;jettySize=auto;html=1;exitX=0;exitY=0.5;exitDx=0;exitDy=0;entryX=0.951;entryY=0.956;entryDx=0;entryDy=0;entryPerimeter=0;" edge="1" parent="1" source="1VQZmttFoH2Id-X8hUn1-160" target="1VQZmttFoH2Id-X8hUn1-17">
          <mxGeometry relative="1" as="geometry">
            <mxPoint x="1030" y="620" as="targetPoint" />
            <Array as="points">
              <mxPoint x="610" y="735" />
              <mxPoint x="610" y="662" />
              <mxPoint x="1030" y="662" />
              <mxPoint x="1030" y="612" />
              <mxPoint x="1030" y="612" />
            </Array>
          </mxGeometry>
        </mxCell>
      </root>
    </mxGraphModel>
  </diagram>
</mxfile>
